<svg width="789" height="615" viewBox="0 0 789 615" fill="none" xmlns="http://www.w3.org/2000/svg">
<path d="M356 2.04078C326.933 6.04078 298 15.1075 278.933 26.4408L270 31.7741L267.333 28.7075C265.867 26.9741 262.267 22.7075 259.467 19.2408C252.4 10.7075 246.667 8.44081 226.267 6.44081L209.2 4.70747L205.333 8.70747C202.933 11.1075 200.4 16.4408 198.267 23.2408L194.933 33.9075L185.867 34.7075C156 37.3741 130.8 62.1742 117.6 102.041C112.933 115.907 107.333 143.107 100.533 184.841C91.7333 239.907 85.8667 260.974 71.3333 290.174C60.6667 311.641 53.0667 324.174 37.7333 345.241C9.6 383.907 0 406.841 0 435.241C0 465.241 11.0667 488.041 33.8667 504.841C39.3333 508.841 42.9333 510.574 46 510.574C52.5333 510.574 53.6 508.441 51.2 499.774C49.8667 495.241 48.9333 485.107 48.5333 471.907L48 451.241L51.0667 461.907C56.9333 482.707 66.5333 499.774 79.7333 512.841C100.8 533.507 130.8 545.241 163.067 545.241C195.067 545.241 200.4 540.441 185.467 524.841C168.533 506.974 164 496.441 164 474.707C164 458.841 166.8 447.907 176.267 427.507C180 419.241 185.867 404.707 189.333 395.241L195.733 377.907L206.667 376.841C227.067 374.974 230.667 370.707 230.667 348.174V333.241L226.4 328.574C222.4 324.307 220.933 323.774 210.933 322.307L199.867 320.841L200.667 314.041C201.067 310.307 202.267 294.174 203.333 278.174C204.267 262.174 205.333 248.707 205.733 248.441C206 248.041 207.067 252.441 207.867 258.174C210.4 275.641 219.2 290.041 230.8 295.907C233.733 297.507 238.133 301.907 241.733 306.974C248.8 316.841 260.8 328.307 268.133 331.907C276.933 336.441 281.733 335.107 283.733 327.374L284.667 323.907L292.667 329.374C297.067 332.307 303.467 336.174 307.067 338.041C310.533 339.774 313.333 341.507 313.333 341.774C313.333 342.974 276.533 372.574 267.333 378.574C261.467 382.441 253.067 388.041 248.667 390.841C240.8 396.174 240.667 396.174 234 394.707C225.067 392.707 218.133 394.707 211.733 401.241C207.467 405.507 206.4 407.774 206.4 413.241C206.267 413.641 206.667 415.507 207.2 417.374C207.867 420.307 207.067 421.507 201.867 425.241C192.667 431.774 188 439.907 188 449.507C188 466.174 199.467 477.641 219.467 481.374C229.733 483.241 239.733 481.107 253.867 474.041C264.667 468.574 266 468.174 268.533 469.907C271.733 472.307 276.533 472.441 280.267 470.441C281.733 469.641 278.667 474.574 273.333 481.374C263.2 494.574 257.333 504.707 257.333 509.241C257.333 520.707 277.867 536.041 306.667 545.907L315.333 548.841L316.267 557.774C318.667 581.907 325.6 599.107 335.733 606.441C350.267 616.841 368.133 617.374 376.933 607.774C380.533 603.774 382.133 596.841 384 577.907C384.667 569.907 385.733 562.974 386.4 562.574C386.933 562.174 391.467 562.041 396.4 562.307L405.6 562.841L412.667 573.641C416.533 579.641 421.2 587.774 423.2 591.641C428.267 601.774 435.067 608.707 442.267 611.107C445.733 612.307 449.467 613.241 450.533 613.241C456.133 613.241 463.467 609.907 468.667 604.974C478.133 596.307 481.067 583.374 478.267 562.174L476.533 548.974L488.533 542.974C509.467 532.441 525.467 520.307 528.8 512.441C530 509.507 530.267 506.974 529.333 504.041C527.867 498.841 518.533 485.507 509.333 475.507C505.733 471.507 502.667 467.907 502.667 467.374C502.667 466.974 504.667 467.774 507.067 469.241C511.6 472.041 518 472.707 521.2 470.707C522.533 469.774 525.6 470.707 530.533 473.107C542.133 478.974 551.6 481.507 560.667 481.507C582.8 481.507 597.333 468.974 597.333 449.774C597.2 439.641 593.867 432.307 586.4 426.041C580.533 421.107 580.4 420.841 581.067 414.707C581.6 408.974 581.2 407.774 577.333 403.374C574.933 400.707 571.2 397.507 568.933 396.441C564.4 394.041 554.267 393.774 548.8 395.907C545.467 397.107 544.533 396.974 541.867 394.441C540.267 392.974 533.2 388.041 526.267 383.507C513.467 375.241 470.8 342.707 470.667 341.107C470.667 340.574 472 339.907 473.733 339.507C475.333 338.974 481.6 335.374 487.733 331.507C493.733 327.507 498.667 324.707 498.667 325.374C498.667 325.907 498 328.041 497.333 330.041C496.267 332.707 496.4 334.307 498 336.707C504.133 346.174 523.333 334.574 539.733 311.507C545.2 303.774 549.067 299.907 553.333 297.641C568.4 289.641 577.2 273.774 577.333 254.574C577.333 243.907 579.467 241.774 580.533 251.374C582 265.507 585.467 320.174 585.067 320.707C584.8 320.974 580.533 321.774 575.733 322.441C558.267 324.841 554.667 329.374 554.667 349.241C554.667 365.107 556.533 369.774 564.667 373.374C568.133 374.841 575.6 376.441 581.6 376.974L592.267 377.907L597.2 391.907C600 399.641 606.4 415.507 611.733 427.241C624.4 455.774 627.333 470.441 624 488.041C621.733 500.307 616.533 508.974 603.733 521.507C597.333 527.907 592 533.907 592 534.974C592 541.907 602.8 545.241 624.4 545.241C669.467 545.241 703.467 526.707 724.8 490.574C731.067 480.041 737.333 462.574 737.333 455.774C737.333 453.641 738 451.907 738.8 451.907C741.2 451.907 739.6 492.174 736.8 500.574C734 509.507 734.933 511.907 740.933 511.907C751.333 511.907 770.8 494.174 779.2 476.974C785.867 463.241 788.4 452.307 788.4 436.574C788.4 409.774 777.733 384.174 750.667 345.907C711.867 291.241 701.067 263.507 686.667 182.307C674.4 113.374 667.6 90.8408 652 67.9075C645.067 57.7741 631.467 45.3741 622.4 40.9741C612.667 36.1741 598 32.8408 591.733 33.7741L586.8 34.5742L583.333 23.3742C578 5.64082 574 4.0408 545.733 8.70747C530 11.2408 525.6 13.6408 518.533 24.1741C515.6 28.4408 512.267 32.4408 511.333 32.7075C510.4 33.1075 507.2 31.9075 504.4 30.1741C466.4 6.17414 407.733 -4.89255 356 2.04078ZM429.733 19.1075C482.667 28.9742 524.667 55.3741 550.4 94.9741C571.333 127.374 582.533 173.641 577.333 206.574C575.867 215.641 572.267 227.907 571.067 227.907C569.067 227.907 537.6 210.707 525.067 202.841C490.533 181.241 455.333 148.041 443.467 125.907C437.467 114.974 432.667 112.707 427.467 118.441C422.933 123.507 414.667 175.507 414.667 199.374V208.174L409.733 207.374C402.133 206.041 384.267 196.974 376.267 190.574C362.133 179.241 347.867 156.041 343.2 136.574C341.6 130.174 340.933 122.174 341.067 111.107C341.2 93.6408 340.533 91.3741 334.4 89.9075C329.733 88.7075 326.933 92.9741 325.733 102.707C324.933 109.374 324.267 110.574 314.8 120.574C302.133 133.774 297.067 140.174 287.733 154.574C267.467 185.641 254.667 222.841 254.667 250.307C254.667 258.707 254.533 258.974 252.133 256.707C248.933 253.774 242 240.841 238.4 230.974C236 224.574 235.467 218.974 234.8 198.707C233.867 172.041 233.467 170.574 226.267 172.441C219.867 174.041 219.333 176.974 219.467 206.174C219.467 221.107 219.067 233.241 218.533 233.241C216.667 233.241 206.8 222.574 203.467 216.974C192.4 198.041 194 164.307 207.467 131.241C218 105.641 232.133 85.1074 252.4 65.7741C281.2 38.3074 315.733 22.5741 358.667 17.2408C373.467 15.5075 415.867 16.5742 429.733 19.1075ZM239.333 22.4408C238.8 23.6408 233.867 36.8408 228.4 51.9075C222.8 66.9741 217.733 79.7742 216.933 80.5742C216 81.5075 216 80.9741 216.667 79.2408C217.2 77.7741 219.6 71.1075 222 64.5742C224.267 57.9075 227.2 50.1742 228.533 47.3742C229.733 44.4408 231.067 40.5741 231.6 38.7075C232 36.8408 233.067 33.7741 234 31.9075C236.933 26.0408 237.467 22.9741 235.733 22.9741C234.8 22.9741 230.533 22.4408 226.4 21.9075C221.6 21.3741 218.667 21.3741 218.667 22.1741C218.667 22.9741 220.267 23.3742 222.4 23.1075C224.4 22.8408 225.333 22.8408 224.4 23.3742C223.467 23.7742 223.2 24.9741 223.6 26.1741C224.133 27.5075 223.867 28.0408 223.067 27.5075C222.267 26.9741 221.333 26.9741 220.933 27.5075C220.667 28.1741 220.667 27.9075 220.8 26.9741C221.067 26.1741 220.4 25.1075 219.467 24.8408C218.267 24.3075 216.933 26.4408 215.333 31.3742C214.133 35.3742 212.8 38.4408 212.4 38.0408C212 37.6408 213.067 33.5075 214.667 28.5742L217.6 19.7741L228.8 20.0408C238.533 20.3074 240 20.7075 239.333 22.4408ZM572 45.7741C575.733 58.8408 578.533 69.9075 578.133 70.1741C577.733 70.5741 576.533 67.3742 575.333 63.1075C574.133 58.7075 572 51.6408 570.667 47.2408C569.333 42.8408 567.733 37.2408 567.333 34.8408C566.8 32.5742 565.867 30.5742 565.333 30.5742C564.667 30.5742 564.4 29.7741 564.8 28.7075C565.2 27.6408 564.933 26.4408 564.133 25.9075C563.333 25.5075 562.933 25.9075 563.333 26.8408C563.733 27.7742 563.333 29.5075 562.667 30.5742C561.6 32.1742 561.067 32.3075 560.133 30.8408C559.2 29.3742 558.933 29.5075 558.133 31.2408C557.733 32.4408 556.8 32.9742 556 32.5742C555.333 32.1742 554.667 32.4408 554.667 33.1075C554.667 33.9075 555.333 34.5742 556.267 34.5742C557.067 34.5742 556.667 35.3741 555.333 36.4408C553.867 37.5075 552 38.0408 551.067 37.6408C549.867 37.1075 549.6 37.6408 550.133 39.1075C550.8 40.9742 551.2 40.9741 553.733 39.2408C555.333 38.1741 557.733 37.2408 559.067 37.2408C561.2 37.2408 561.333 36.9741 560 35.2408C557.2 31.9075 559.067 31.9075 562.8 35.1075C566.8 38.5742 568.133 42.5741 566.4 45.7741C565.467 47.3741 565.733 47.9075 567.333 47.9075C568.4 47.9075 569.333 48.5742 569.333 49.3742C569.333 50.1742 568.4 50.5741 567.333 50.1741C566.267 49.6408 565.067 49.9075 564.667 50.5742C564.267 51.1075 564.8 52.0408 565.6 52.3075C566.667 52.7075 566.4 53.1075 565.067 53.1075C563.733 53.2408 562.667 52.4408 562.667 51.5075C562.667 50.4408 562.133 50.5741 561.333 51.9075C559.6 54.5741 559.6 56.3075 561.333 55.2408C562.133 54.8408 562.667 54.9741 562.667 55.6408C562.667 56.4408 561.733 57.3741 560.533 57.7741C559.467 58.1741 558.933 58.0408 559.333 57.2408C559.733 56.4408 559.6 55.9075 558.933 55.9075C558.267 55.9075 557.733 54.9741 557.733 53.9075C557.733 52.8408 558.4 52.3075 559.067 52.8408C559.733 53.2408 560 52.1741 559.467 50.4408C559.067 48.7075 559.067 47.9075 559.467 48.7075C560.4 50.9741 565.333 49.3742 564.4 47.1075C564 46.0408 563.067 45.6408 562.133 46.0408C561.333 46.4408 561.733 45.9075 562.933 44.8408C564.8 43.3742 564.933 42.7075 563.6 41.2408C562.267 39.9075 562.4 39.7742 563.867 40.5742C565.067 41.2408 565.467 41.1075 564.8 40.1741C563.333 37.6408 561.333 38.3075 561.333 41.2408C561.333 42.7075 560.8 43.9075 560 43.9075C559.333 43.9075 559.067 43.1075 559.467 42.0408C559.867 40.9742 559.467 39.7742 558.533 39.1075C557.467 38.5742 557.2 38.7075 557.867 39.6408C558.533 40.7075 558.133 40.9741 556.8 40.4408C554.8 39.6408 553.867 41.9075 554.533 45.6408C554.667 46.3075 554 46.4408 553.067 45.9075C552.133 45.5075 552.667 46.1742 554.4 47.3742C556 48.5742 557.333 50.1742 557.333 50.8408C557.333 51.6408 556.267 51.3741 555.067 50.4408C552.933 48.8408 552.8 48.8408 554.133 50.5742C554.933 51.6408 556.267 54.9741 557.067 57.9075C560.133 69.9075 572.667 99.9075 574.533 99.9075C574.933 99.9075 576.267 99.2408 577.333 98.4408C579.067 97.2408 579.067 97.1075 577.067 97.6408C574.267 98.5741 572.8 95.1075 575.467 94.0408C578.8 92.7075 580 93.1075 580 95.3741C580 96.8408 580.667 97.2408 582.267 96.7075C584.4 95.9075 584.4 95.9075 582.267 98.3075C581.067 99.6408 580 101.374 580 102.041C580 102.707 580.533 102.441 581.2 101.374C582.8 98.8408 585.733 100.974 584.933 104.041C584.533 105.507 584.8 106.307 585.467 105.774C586.133 105.374 586.667 105.907 586.667 107.107C586.667 108.174 587.067 110.041 587.6 111.374C588.267 113.241 588 113.507 585.867 112.841C583.467 111.907 583.467 111.907 585.867 113.774C587.467 115.107 588.133 116.841 587.733 119.241C587.2 121.907 587.6 122.574 589.6 122.574C591.2 122.574 591.733 123.107 591.2 124.174C590.667 124.974 590.8 125.241 591.6 124.841C592.4 124.307 592.667 122.441 592.4 120.574C592 118.707 591.067 117.641 590.267 118.174C589.467 118.574 589.333 118.307 589.867 117.507C591.2 115.374 584 90.4408 582.267 91.5074C581.6 91.9074 581.333 91.6408 581.733 90.8408C582.267 90.1742 581.733 85.7741 580.533 81.2408C579.467 76.7075 578.667 72.7075 579.067 72.4408C579.333 72.1741 583.067 83.7741 587.333 98.1741C591.6 112.707 595.2 125.107 595.467 125.907C595.867 126.974 588 133.241 586.133 133.241C585.867 133.241 584 128.574 582 122.841C580 117.241 576.267 108.441 573.733 103.507C566 87.9075 542.667 27.5075 542.667 22.8408C542.667 21.3742 562.4 19.9075 564.267 21.2408C564.667 21.6408 568.267 32.5741 572 45.7741ZM228 26.5742C228 27.2408 227.733 27.9075 227.467 27.9075C227.067 27.9075 226.4 27.2408 226 26.5742C225.6 25.7742 225.867 25.2408 226.533 25.2408C227.333 25.2408 228 25.7742 228 26.5742ZM209.733 50.0408C207.867 55.5075 206.133 59.9075 205.867 59.6408C205.067 58.8408 211.067 39.9075 212.133 39.9075C212.667 39.9075 211.6 44.4408 209.733 50.0408ZM189.333 52.8408C188.667 54.9742 183.333 72.9742 177.467 92.8408C165.467 133.641 165.467 133.241 174.933 139.774C186.667 148.041 185.733 146.041 183.2 157.241C180.4 169.907 180 196.574 182.533 206.574C183.467 210.574 186.133 217.641 188.267 222.174C192.133 230.574 192.133 230.574 190.8 244.174C190 251.774 188.8 268.707 188 281.907C187.2 295.107 186.267 309.374 185.733 313.507L184.933 321.241H170.533H156V311.907C156 296.441 151.467 290.041 142.4 292.441C140.667 292.841 128.133 304.441 114.4 318.307C90.5333 342.174 89.3333 343.641 89.3333 348.574C89.3333 353.507 103.474 367.976 114.267 378.841C125.026 389.672 139.467 403.907 144.267 403.907C152.533 403.907 154.667 400.574 154.667 387.907V377.241H167.2H179.867L176.133 388.174C174 394.307 168.133 409.107 162.933 421.241C150.8 449.374 148.8 456.707 148.8 475.241C148.667 495.907 152.533 507.907 164.4 523.774L169.733 530.974L157.067 530.041C117.067 527.241 88.1333 508.974 72.5333 476.707C65.6 462.441 63.4667 450.574 64.5333 432.174C66.2667 402.307 66.4 404.974 62.2667 402.574C58.5333 400.574 58.4 400.707 53.4667 406.041C47.6 412.707 39.3333 429.107 36.2667 440.307C34.8 446.041 34.1333 454.174 34 466.841C34 476.974 33.7333 485.241 33.3333 485.241C32.4 485.241 24.6667 473.374 21.4667 466.974C14.4 452.707 12.6667 430.307 17.4667 413.241C21.3333 398.841 31.7333 378.974 44.8 360.574C65.2 331.774 73.8667 318.174 83.4667 299.241C98.8 268.841 107.2 239.107 115.333 185.641C126.533 113.907 135.2 87.5075 154 68.4408C163.2 58.9741 170.4 54.3075 180.667 51.1075C189.333 48.3075 190.667 48.5742 189.333 52.8408ZM613.467 53.7741C633.6 63.2408 647.467 83.6408 658.133 119.241C661.6 130.441 669.333 168.041 675.333 202.307C685.467 260.441 699.2 296.307 726.533 336.574C733.467 346.841 742.933 360.841 747.733 367.774C757.867 382.707 765.333 397.374 770.267 411.507C773.067 420.041 773.733 424.307 773.733 435.241C773.733 446.707 773.2 450.307 769.467 461.241C766.933 468.707 763.2 476.707 760.267 480.574L755.333 487.241L754.533 468.574C754.133 458.307 753.067 447.241 752.133 443.907C747.333 426.307 738 409.107 730.267 403.374C726.8 400.841 726.267 400.841 722.933 402.707C718.667 405.107 718.533 407.374 722 419.907C726.4 436.041 723.067 461.907 714.4 479.107C699.067 509.907 669.6 527.641 630 530.174L616.667 530.974L622.533 524.441C635.6 509.641 640.667 493.507 639.6 470.574C638.8 453.374 637.2 447.374 626.933 424.441C618.667 406.307 611.2 387.107 610.133 381.907L609.333 377.907H619.6H630L630.667 388.707C631.467 401.641 632.933 403.907 640.4 403.907C645.733 403.907 646.667 403.107 671.067 378.841C684.933 365.107 696.8 352.574 697.467 350.841C698.133 349.241 698.133 346.574 697.467 344.841C696.267 341.774 659.867 305.241 649.6 296.707C642.4 290.841 637.333 290.441 633.467 295.374C631.2 298.307 630.667 300.841 630.667 310.041V321.241H616C608 321.241 601.333 320.841 601.333 320.174C601.333 319.641 600.667 313.774 600 307.241C599.333 300.574 597.867 280.841 596.667 263.241C595.467 245.641 594 228.707 593.2 225.641C592.4 222.041 592.533 216.707 593.333 210.974C595.2 197.774 594.933 176.841 592.667 164.174C591.6 158.174 590.4 152.707 590 152.041C589.6 151.374 591.733 149.641 594.667 148.041C605.6 142.307 610.8 138.307 612.933 134.041C614.933 129.774 614.8 129.107 610.933 117.107C605.733 101.241 590.667 51.1075 590.667 49.9075C590.667 47.7741 606.533 50.4408 613.467 53.7741ZM569.733 59.2408C570.267 60.3075 570.133 61.3741 569.6 61.7741C569.067 62.1741 568.4 61.2408 568.4 59.7741C568.133 56.7074 568.8 56.4408 569.733 59.2408ZM204.533 66.4408C204 68.7075 203.333 70.4408 203.067 70.0408C202.667 69.7742 202.8 67.5075 203.333 65.2408C204.533 59.7741 205.6 60.8408 204.533 66.4408ZM566 62.5742C566.4 63.3742 565.867 63.5075 564.8 63.1075C562.4 62.1742 562 61.2408 563.867 61.2408C564.667 61.2408 565.6 61.7742 566 62.5742ZM573.467 68.0408C576.533 71.1075 576 72.8408 572.4 71.2408C571.067 70.5741 569.6 70.3075 569.067 70.3075C568.4 70.4408 568 69.3741 568 67.9075C568 64.4408 570 64.5742 573.467 68.0408ZM201.467 76.0408C200.8 77.7742 200.133 78.5741 200.133 77.6408C200 75.6408 201.467 71.6408 202.133 72.3075C202.533 72.5742 202.133 74.3075 201.467 76.0408ZM197.2 91.1075C195.6 96.7075 194 100.974 193.733 100.707C193.467 100.441 194.533 95.6408 196.133 90.0408C197.733 84.4408 199.333 80.1741 199.6 80.4408C199.867 80.7075 198.8 85.5075 197.2 91.1075ZM213.2 87.5074C204.533 102.041 198.4 113.374 195.867 119.507C194.267 123.374 192.4 126.574 191.733 126.574C191.067 126.574 190.933 127.241 191.333 127.907C191.867 128.707 190.667 128.574 188.667 127.641C186.8 126.841 185.467 125.374 185.867 124.574C186.133 123.774 187.467 119.241 188.8 114.574C190.133 109.907 191.333 106.707 191.6 107.374C191.867 108.174 190.933 112.441 189.467 116.974C187.067 124.707 187.067 126.574 189.6 126.574C190.133 126.574 193.067 121.774 196 116.041C202.267 103.374 214.533 82.5742 215.467 82.5742C215.867 82.5742 214.933 84.8408 213.2 87.5074ZM578.133 90.8408C578.533 91.3742 578 91.5075 576.8 91.3741C575.733 91.2408 574.4 90.7075 573.867 90.3075C573.467 89.7742 574 89.6408 575.2 89.7741C576.267 89.9074 577.6 90.4408 578.133 90.8408ZM329.067 143.507C338.8 181.241 365.467 210.174 399.867 220.441C408 222.841 420.267 223.241 424 221.241C427.6 219.374 429.333 212.707 429.333 200.707C429.467 181.507 433.867 143.374 436 144.174C436.533 144.441 441.867 150.174 447.867 156.841L458.8 169.241H452.8C448 169.241 446.4 169.774 445.333 172.041C443.333 175.641 445.733 178.574 450.933 178.574C453.067 178.574 458.933 179.507 464 180.707C471.867 182.441 474.667 183.907 482.4 190.441C487.467 194.707 495.6 200.974 500.267 204.441C510.533 211.641 510.4 210.841 511.6 243.907C512.8 278.174 509.467 291.641 495.733 306.041C483.6 318.841 464.667 328.307 440.667 333.374C416.267 338.574 365.6 338.174 338.267 332.441C312.133 327.107 284.667 309.107 276.667 292.441C275.467 289.774 273.2 282.174 271.867 275.374C263.733 236.174 275.333 196.174 307.6 152.174C315.333 141.641 323.733 131.907 325.2 131.907C325.6 131.907 327.333 137.107 329.067 143.507ZM539.067 228.307L550.8 234.841L549.867 239.641C544.533 271.507 534.8 295.907 520.933 312.574L517.6 316.574L520.133 307.241C524.667 290.707 526.933 267.907 526.4 243.507C526.133 231.241 526.267 221.374 526.667 221.507C527.067 221.774 532.533 224.841 539.067 228.307ZM251.733 272.574C254.133 272.974 256 274.174 256 274.974C256.133 278.041 261.067 304.574 262 307.241C263.467 311.241 256.933 303.641 249.333 292.174C244 284.174 234.667 264.041 234.667 260.441C234.667 259.907 237.6 262.307 241.067 265.507C244.667 268.841 249.467 272.041 251.733 272.574ZM681.333 347.241C681.333 348.041 647.6 382.574 646.8 382.574C646.4 382.574 645.733 378.841 645.6 374.174C645.333 369.641 644.4 365.107 643.467 364.174C642.133 362.841 633.867 362.441 607.333 362.574C583.6 362.574 572.4 362.174 571.2 361.107C569.867 360.041 569.333 356.307 569.333 349.107C569.333 340.174 569.733 338.441 571.867 337.241C573.467 336.441 587.867 335.907 609.2 335.907C633.6 335.907 644.133 335.507 644.8 334.441C645.333 333.507 646 328.841 646.4 323.774L647.067 314.707L664.133 330.841C673.6 339.641 681.333 347.107 681.333 347.241ZM141.467 334.041C142.667 335.507 150.133 335.907 179.2 336.174L215.333 336.574L215.733 348.841L216.133 361.241L211.733 361.374C209.333 361.507 193.2 361.641 175.867 361.774C151.333 361.907 143.867 362.307 142.267 363.774C140.533 365.107 140 367.774 140 374.041C140 378.707 139.6 382.574 138.933 382.574C138 382.574 112.267 356.707 107.6 351.107C105.333 348.441 105.733 348.041 121.6 332.174L138 315.907L138.933 324.041C139.467 328.441 140.533 332.974 141.467 334.041ZM365.2 351.907C372.133 352.707 378 353.507 378.267 353.641C378.4 353.907 373.867 359.107 368.133 365.374L357.6 376.574L350.667 369.907C342.4 362.041 336 353.641 336 350.841C336 349.241 337.467 348.974 344.4 349.774C348.933 350.174 358.267 351.241 365.2 351.907ZM445.333 350.707C445.333 352.974 432.133 368.841 427.2 372.574L422.933 375.907L413.467 365.641C408.267 360.041 404 354.974 404 354.441C404 353.374 407.067 352.841 426.667 350.841C443.2 349.107 445.333 349.107 445.333 350.707ZM494.667 379.774L499.2 383.641L491.733 392.707C480.267 406.841 477.6 409.507 476.8 408.174C475.467 405.907 461.333 358.307 461.333 355.774C461.333 353.374 472.933 361.774 494.667 379.774ZM321.333 357.241C321.333 358.041 317.6 369.641 313.067 383.241C303.6 411.641 305.467 410.707 292.267 393.507C285.6 384.707 285.067 383.507 287.067 382.307C288.4 381.641 296.133 375.374 304.4 368.574C319.333 356.041 321.333 354.707 321.333 357.241ZM395.733 369.374C403.2 377.641 403.467 378.707 400 381.507C395.733 384.974 383.6 384.841 380 381.241L377.2 378.441L383.6 371.241C387.067 367.241 390.133 363.907 390.4 363.907C390.533 363.907 392.933 366.441 395.733 369.374ZM451.2 374.174C451.6 375.507 455.467 389.507 460 405.241C464.4 420.974 470.133 438.441 472.533 444.174L476.933 454.441L472.133 457.641C462.667 463.907 453.333 467.907 440.4 471.241C425.467 474.974 414.667 475.641 414.667 472.707C414.667 470.974 418.8 465.241 423.6 460.174C426.267 457.374 425.733 453.507 419.333 422.041C412.533 388.841 412.267 387.107 415.733 388.707C416.933 389.241 420.4 389.907 423.333 390.307C428 390.707 429.6 390.041 435.333 385.507C439.067 382.574 443.333 378.307 445.067 376.041C448.533 371.374 450.133 370.841 451.2 374.174ZM341.467 381.907C349.467 389.374 351.333 390.574 355.733 390.574C358.533 390.574 362 389.641 363.6 388.574C365.467 387.241 366.8 387.107 367.333 387.907C367.733 388.574 365.067 404.574 361.333 423.374L354.533 457.641L358.4 461.774C362.933 466.707 366.667 472.041 366.667 473.774C366.667 475.774 348 473.507 335.6 469.907C323.867 466.574 313.2 461.774 306.4 457.107L302.933 454.574L307.333 443.907C309.867 438.041 316.267 419.774 321.467 403.241C326.8 386.707 331.467 373.241 331.733 373.241C332.133 373.241 336.533 377.107 341.467 381.907ZM400.533 405.507C405.333 423.774 410.667 447.374 410.667 449.774C410.667 453.241 393.6 470.574 390.267 470.574C387.067 470.574 369.333 453.641 369.333 450.574C369.333 447.907 381.067 400.174 382.133 398.441C382.533 397.774 386.267 397.241 390.533 397.241H398.4L400.533 405.507ZM232.533 409.774C236.533 411.374 237.067 412.307 238.533 420.041C240.667 430.574 245.467 442.707 250.667 450.441C252.8 453.774 254.267 456.841 254 457.241C252.8 459.241 236.267 466.307 230.933 467.241C218.667 469.241 202.667 460.041 202.667 450.841C202.667 443.241 211.067 434.441 222.4 429.907C227.467 427.907 228 427.107 228 423.107C228 419.774 227.067 418.041 224.667 416.441C222.8 415.241 221.333 413.507 221.333 412.574C221.333 411.374 225.067 408.574 227.733 408.041C227.867 407.907 230.133 408.707 232.533 409.774ZM565.467 411.374C566.933 413.241 566.667 413.907 563.6 416.174C560.933 418.174 560 419.907 560 423.374C560 427.507 560.533 428.041 566.667 430.707C570.267 432.307 575.467 435.907 578 438.707C581.867 443.107 582.667 444.974 582.667 450.041C582.667 454.974 582 456.841 578.8 459.907C573.467 465.374 562.133 468.441 554.267 466.574C548.933 465.374 533.733 459.507 532.267 457.907C532 457.641 533.2 454.841 535.067 451.641C539.467 444.174 546.667 423.507 546.667 418.574C546.667 411.107 560.667 405.641 565.467 411.374ZM513.067 504.174C516.4 507.507 514.533 510.574 505.067 516.974C494.133 524.307 477.2 533.241 474 533.241C472.933 533.241 472 532.441 472 531.507C472 530.707 471.6 528.574 471.2 526.974C470.533 524.441 471.6 523.507 480 519.241C485.2 516.574 493.867 511.774 499.067 508.574C509.333 502.174 510.667 501.774 513.067 504.174ZM284.8 508.041C291.333 512.441 312 522.574 314.667 522.574C315.733 522.574 316 523.641 315.467 525.507C315.067 527.241 314.667 529.641 314.667 530.841C314.667 534.574 310.933 533.774 296.667 526.707C274.933 516.041 268.8 510.307 273.6 505.507C276 503.107 278.4 503.507 284.8 508.041ZM342.8 530.441C349.733 531.907 361.467 533.774 369.067 534.707C383.333 536.441 383.333 536.441 381.867 543.507L381.067 547.374L370.933 546.307C358.667 544.974 340 541.774 333.067 539.907C329.067 538.707 328 537.774 328 535.241C328 532.307 329.2 527.907 330 527.907C330.267 527.907 336 529.107 342.8 530.441ZM457.867 531.374C458.267 532.574 458.667 534.841 458.667 536.574C458.667 539.374 457.6 539.907 449.733 541.774C433.333 545.374 423.467 546.707 409.333 546.974L395.333 547.241V541.907V536.574L404 536.307C417.467 535.774 439.2 533.107 446.267 531.241C454.933 528.841 456.933 528.841 457.867 531.374Z" fill="black"/>
<path d="M577.467 106.841C581.067 113.907 580.8 113.774 581.867 111.241C582.267 110.041 582.133 109.374 581.467 109.774C580.133 110.707 577.067 104.174 578 102.441C578.533 101.774 577.867 101.241 576.667 101.241C574.933 101.241 575.067 102.041 577.467 106.841Z" fill="black"/>
<path d="M584.8 124.307C585.2 125.641 586 126.307 586.4 125.907C586.8 125.507 586.4 124.441 585.467 123.507C584.133 122.307 584 122.441 584.8 124.307Z" fill="black"/>
<path d="M569.333 67.1074C569.333 67.3741 570.267 68.3074 571.333 69.2408C572.533 70.1741 573.333 70.3074 573.333 69.5074C573.333 68.8408 572.4 67.9074 571.333 67.3741C570.267 66.9741 569.333 66.8408 569.333 67.1074Z" fill="black"/>
<path d="M313.2 169.774C306.8 172.041 299.067 176.841 298.267 179.107C297.867 180.174 298.267 182.041 299.333 183.507C301.067 185.774 301.467 185.774 308.8 182.174C312.933 180.041 319.333 178.041 322.8 177.641C330.533 176.707 332.8 174.707 330.667 170.707C328.933 167.374 320.933 166.974 313.2 169.774Z" fill="black"/>
<path d="M316.267 217.907C313.467 220.174 311.733 223.374 310.667 228.041C308.4 237.241 309.467 254.174 312.667 259.507C318.667 269.774 330.933 268.441 336.933 256.841C339.6 251.641 340 233.374 337.467 226.307C335.467 220.041 329.067 214.574 324 214.574C321.867 214.574 318.4 216.041 316.267 217.907Z" fill="black"/>
<path d="M450.533 216.574C443.867 220.174 440.267 235.241 442.533 249.374C444.133 259.374 447.333 264.041 453.2 265.774C463.2 268.707 470.267 260.307 471.6 244.174C473.333 222.974 463.2 209.641 450.533 216.574Z" fill="black"/>
<path d="M406.533 290.707C396.533 299.107 387.2 299.507 377.6 292.307C371.733 287.907 366.667 288.841 366.667 294.441C366.667 300.974 380 309.241 390.4 309.241C398.267 309.241 407.733 305.507 413.467 299.907C419.2 294.574 420.133 290.174 416.133 287.907C412.533 286.041 412 286.174 406.533 290.707Z" fill="black"/>
</svg>
