<?xml version="1.0" encoding="UTF-8" standalone="no"?>
<!-- Created with Inkscape (http://www.inkscape.org/) -->

<svg
   viewBox="0 0 99.134804 14.105494"
   version="1.1"
   id="svg1"
   inkscape:version="1.4 (e7c3feb1, 2024-10-09)"
   sodipodi:docname="title_bg03.svg"
   inkscape:export-filename="描画.svg"
   inkscape:export-xdpi="96"
   inkscape:export-ydpi="96"
   xmlns:inkscape="http://www.inkscape.org/namespaces/inkscape"
   xmlns:sodipodi="http://sodipodi.sourceforge.net/DTD/sodipodi-0.dtd"
   xmlns="http://www.w3.org/2000/svg"
   xmlns:svg="http://www.w3.org/2000/svg">
  <sodipodi:namedview
     id="namedview1"
     pagecolor="#ffffff"
     bordercolor="#000000"
     borderopacity="0.25"
     inkscape:showpageshadow="2"
     inkscape:pageopacity="0.0"
     inkscape:pagecheckerboard="0"
     inkscape:deskcolor="#d1d1d1"
     inkscape:document-units="mm"
     inkscape:zoom="5.5787547"
     inkscape:cx="39.793827"
     inkscape:cy="-2.5991464"
     inkscape:window-width="1472"
     inkscape:window-height="1162"
     inkscape:window-x="1141"
     inkscape:window-y="103"
     inkscape:window-maximized="0"
     inkscape:current-layer="layer1">
    <inkscape:page
       x="-6.7404537e-14"
       y="0"
       width="99.134796"
       height="14.105494"
       id="page2"
       margin="0"
       bleed="0" />
  </sodipodi:namedview>
  <defs
     id="defs1" />
  <g
     inkscape:label="Layer 1"
     inkscape:groupmode="layer"
     id="layer1"
     transform="translate(-47.593088,-119.14613)">
    <path
       d="m 53.006122,133.01456 h 2.805295 l 5.413034,-13.63137 h -2.983095 l -3.812831,10.01609 -3.793075,-10.01609 h -3.042363 z m 15.521471,0.23706 c 4.089409,0 7.191038,-3.04236 7.191038,-7.05275 0,-4.01038 -3.101629,-7.05274 -7.191038,-7.05274 -4.109165,0 -7.191039,3.04236 -7.191039,7.05274 0,4.01039 3.081874,7.05275 7.191039,7.05275 z m 0,-2.62749 c -2.508961,0 -4.405499,-1.89654 -4.405499,-4.42526 0,-2.52871 1.896538,-4.42525 4.405499,-4.42525 2.489205,0 4.385743,1.89654 4.385743,4.42525 0,2.52872 -1.896538,4.42526 -4.385743,4.42526 z m 15.716762,2.62749 c 3.45723,0 6.223014,-2.21262 6.855194,-5.31425 h -2.884318 c -0.553157,1.6002 -2.113849,2.68676 -3.970876,2.68676 -2.508961,0 -4.405498,-1.89654 -4.405498,-4.42526 0,-2.52871 1.896537,-4.42525 4.405498,-4.42525 1.857027,0 3.417719,1.08656 3.970876,2.68676 h 2.884318 c -0.63218,-3.10163 -3.397964,-5.31425 -6.855194,-5.31425 -4.109164,0 -7.191038,3.04236 -7.191038,7.05274 0,4.01039 3.081874,7.05275 7.191038,7.05275 z m 7.499693,-0.23706 h 2.943585 l 0.948269,-2.64725 h 5.867408 l 0.96803,2.64725 h 2.98309 l -5.23523,-13.63137 h -3.220162 z m 4.820367,-5.15621 2.015071,-5.47231 1.995314,5.47231 z m 10.304975,5.15621 h 8.47515 v -2.56823 h -5.74888 v -11.06314 h -2.72627 z m 17.18839,0.23706 c 4.08941,0 7.19104,-3.04236 7.19104,-7.05275 0,-4.01038 -3.10163,-7.05274 -7.19104,-7.05274 -4.10916,0 -7.19103,3.04236 -7.19103,7.05274 0,4.01039 3.08187,7.05275 7.19103,7.05275 z m 0,-2.62749 c -2.50896,0 -4.40549,-1.89654 -4.40549,-4.42526 0,-2.52871 1.89653,-4.42525 4.40549,-4.42525 2.48921,0 4.38575,1.89654 4.38575,4.42525 0,2.52872 -1.89654,4.42526 -4.38575,4.42526 z m 15.67662,2.62749 c 4.0499,0 6.99349,-3.00285 6.99349,-6.95397 v -0.94827 h -6.55886 v 2.46945 h 3.61527 c -0.49389,1.67923 -2.09409,2.8053 -4.0499,2.8053 -2.50896,0 -4.40549,-1.89654 -4.40549,-4.42526 0,-2.52871 1.89653,-4.42525 4.40549,-4.42525 1.5607,0 2.88432,0.73096 3.61528,1.89654 h 3.04236 c -0.79022,-2.64725 -3.45723,-4.52403 -6.65764,-4.52403 -4.10916,0 -7.19103,3.04236 -7.19103,7.05274 0,4.01039 3.08187,7.05275 7.19103,7.05275 z"
       id="text2"
       style="font-weight:600;font-size:19.7556px;font-family:'Neulis Sans';-inkscape-font-specification:'Neulis Sans Semi-Bold';letter-spacing:0.0926042px;word-spacing:0px;fill:#f9f9f9;stroke-width:0.264583"
       aria-label="VOCALOG"
       sodipodi:nodetypes="ccccccccsssssssssssccsssccsssccccccccccccccccccccssssssssssssccccsssccsss" />
  </g>
</svg>
