<svg xmlns="http://www.w3.org/2000/svg" id="_レイヤー_2" data-name="レイヤー_2" viewBox="0 0 1960 176.06">
  <defs>
    <style>
      .cls-1 {
        fill: #F7F7F7;
      }
    </style>
  </defs>
  <g id="_データ" data-name="データ">
    <g>
      <g>
        <path class="cls-1" d="M53.42,101.82L0,3.51c10.53-1,27.34-1,37.87,0l34.36,69.72L107.09,3.51c10.28-1,26.33-1,36.87,0l-53.92,97.81v71.73c-10.28,1-26.08,1-36.62,0v-71.22Z"/>
        <path class="cls-1" d="M280.38,3.51c9.28-1,29.09-1,36.11,0v126.4c0,34.36-26.58,46.14-66.96,46.14s-67.46-11.79-67.46-46.14V3.51c9.78-1,27.58-1,36.61,0v119.63c0,19.06,14.3,21.82,30.85,21.82s30.85-2.76,30.85-21.82V3.51Z"/>
        <path class="cls-1" d="M479.01,135.68c0,29.34-23.08,40.38-61.44,40.38-15.3,0-34.36-1-51.67-3.76-1.5-8.53-1.5-22.07,0-30.6,19.81,2.51,36.11,3.76,51.16,3.76,14.05,0,25.59-2.01,25.59-15.3v-8.28c0-11.04-3.26-12.04-17.56-16.55l-35.36-11.54c-15.3-5.02-24.33-13.04-24.33-36.62v-16.8c0-29.6,25.33-40.38,62.45-40.38,16.3,0,30.59,1,49.4,5.02,1.76,8.28,1.76,21.32,0,29.59-19.56-3.26-32.6-4.26-48.4-4.26s-27.08,1.75-27.08,15.3v7.02c0,9.28,3.76,11.03,19.06,16.3l34.11,11.54c15.55,5.27,24.08,12.04,24.08,36.61v18.56Z"/>
        <path class="cls-1" d="M625.48,102.58h-59.44v70.47c-10.28,1-25.83,1-36.61,0V3.51c10.78-1,26.33-1,36.61,0v66.96h59.44V3.51c10.53-1,26.33-1,36.61,0v169.54c-10.28,1-26.08,1-36.61,0v-70.47Z"/>
        <path class="cls-1" d="M719.77,3.51c10.78-1,26.33-1,36.61,0v169.54c-10.28,1-25.83,1-36.61,0V3.51Z"/>
        <path class="cls-1" d="M850.68,63.7v109.35c-11.53,1.25-24.83,1.25-36.61,0V3.51c12.79-1,27.08-1,39.63,0l59.69,111.6V3.51c13.04-1,24.58-1,36.62,0v169.54c-13.29,1-26.83,1-40.38,0l-58.94-109.35Z"/>
      </g>
      <g>
        <path class="cls-1" d="M1063.42,101.82L1010,3.51c10.53-1,27.34-1,37.87,0l34.36,69.72,34.86-69.72c10.28-1,26.33-1,36.87,0l-53.92,97.81v71.73c-10.28,1-26.08,1-36.62,0v-71.22Z"/>
        <path class="cls-1" d="M1290.38,3.51c9.28-1,29.09-1,36.11,0v126.4c0,34.36-26.58,46.14-66.96,46.14s-67.46-11.79-67.46-46.14V3.51c9.78-1,27.58-1,36.61,0v119.63c0,19.06,14.3,21.82,30.85,21.82s30.85-2.76,30.85-21.82V3.51Z"/>
        <path class="cls-1" d="M1489.01,135.68c0,29.34-23.08,40.38-61.44,40.38-15.3,0-34.36-1-51.67-3.76-1.5-8.53-1.5-22.07,0-30.6,19.81,2.51,36.11,3.76,51.16,3.76,14.05,0,25.59-2.01,25.59-15.3v-8.28c0-11.04-3.26-12.04-17.56-16.55l-35.36-11.54c-15.3-5.02-24.33-13.04-24.33-36.62v-16.8c0-29.6,25.33-40.38,62.45-40.38,16.3,0,30.59,1,49.4,5.02,1.76,8.28,1.76,21.32,0,29.59-19.56-3.26-32.6-4.26-48.4-4.26s-27.08,1.75-27.08,15.3v7.02c0,9.28,3.76,11.03,19.06,16.3l34.11,11.54c15.55,5.27,24.08,12.04,24.08,36.61v18.56Z"/>
        <path class="cls-1" d="M1635.48,102.58h-59.44v70.47c-10.28,1-25.83,1-36.61,0V3.51c10.78-1,26.33-1,36.61,0v66.96h59.44V3.51c10.53-1,26.33-1,36.61,0v169.54c-10.28,1-26.08,1-36.61,0v-70.47Z"/>
        <path class="cls-1" d="M1729.77,3.51c10.78-1,26.33-1,36.61,0v169.54c-10.28,1-25.83,1-36.61,0V3.51Z"/>
        <path class="cls-1" d="M1860.68,63.7v109.35c-11.53,1.25-24.83,1.25-36.61,0V3.51c12.79-1,27.08-1,39.63,0l59.69,111.6V3.51c13.04-1,24.58-1,36.62,0v169.54c-13.29,1-26.83,1-40.38,0l-58.94-109.35Z"/>
      </g>
    </g>
  </g>
<script xmlns=""/></svg>