<?xml version="1.0" standalone="no"?>
<!DOCTYPE svg PUBLIC "-//W3C//DTD SVG 20010904//EN"
 "http://www.w3.org/TR/2001/REC-SVG-20010904/DTD/svg10.dtd">
<svg version="1.0" xmlns="http://www.w3.org/2000/svg"
 width="1280.000000pt" height="1125.000000pt" viewBox="0 0 1280.000000 1125.000000"
 preserveAspectRatio="xMidYMid meet">
<metadata>
Created by potrace 1.15, written by Peter Selinger 2001-2017
</metadata>
<g transform="translate(0.000000,1125.000000) scale(0.100000,-0.100000)"
fill="#000000" stroke="none">
<path d="M4331 9878 l-1851 -1361 0 -2892 0 -2891 613 -451 c336 -247 1169
-860 1851 -1362 681 -501 1242 -911 1247 -911 5 0 9 2391 9 5615 0 3274 -4
5615 -9 5615 -5 0 -842 -613 -1860 -1362z"/>
<path d="M10463 10596 c-137 -45 -215 -153 -216 -296 0 -103 24 -150 143 -275
326 -345 541 -612 763 -950 533 -811 861 -1712 981 -2690 33 -266 41 -409 41
-760 0 -651 -71 -1161 -245 -1765 -283 -982 -795 -1856 -1543 -2637 -117 -123
-140 -166 -140 -273 0 -92 32 -169 95 -225 65 -60 120 -80 213 -79 115 1 148
20 299 172 871 887 1503 2052 1776 3275 297 1332 201 2724 -275 3982 -322 849
-792 1600 -1428 2282 -147 158 -200 205 -262 232 -44 19 -153 23 -202 7z"/>
<path d="M8799 8937 c-134 -50 -211 -156 -212 -292 -2 -105 27 -158 163 -302
587 -619 946 -1383 1057 -2248 28 -218 25 -752 -5 -971 -119 -864 -467 -1596
-1057 -2222 -131 -139 -159 -193 -159 -297 2 -243 270 -385 476 -253 55 34
257 252 395 425 496 621 830 1383 943 2158 40 272 45 348 45 690 0 342 -5 418
-45 690 -93 635 -329 1254 -687 1803 -224 343 -575 753 -688 803 -62 27 -174
35 -226 16z"/>
<path d="M0 5625 l0 -2895 878 2 877 3 0 2890 0 2890 -877 3 -878 2 0 -2895z"/>
<path d="M7150 7281 c-181 -56 -275 -255 -198 -422 15 -34 58 -92 108 -145
277 -300 422 -675 422 -1089 0 -428 -148 -797 -444 -1112 -80 -85 -112 -157
-112 -250 1 -163 123 -290 289 -301 136 -8 220 47 393 260 446 549 602 1279
422 1974 -93 361 -294 715 -555 980 -54 55 -83 76 -128 93 -59 21 -147 27
-197 12z"/>
</g>
</svg>
