<!--?xml version="1.0" encoding="utf-8"?-->
<!-- Generator: Adobe Illustrator 18.1.1, SVG Export Plug-In . SVG Version: 6.00 Build 0)  -->

<svg version="1.1" id="_x32_" xmlns="http://www.w3.org/2000/svg" xmlns:xlink="http://www.w3.org/1999/xlink" x="0px" y="0px" viewBox="0 0 512 512" style="width: 128px; height: 128px; opacity: 1;" xml:space="preserve">
<style type="text/css">
	.st0{fill:#4B4B4B;}
</style>
<g>
	<path class="st0" d="M302.904,93.46c-5.538-3.187-11.716-4.781-17.892-4.781c-6.224,0-12.457,1.625-18.034,4.868l-118.345,68.825
		H72.794C32.661,162.372,0,194.978,0,235.047v41.915c0,40.077,32.661,72.682,72.794,72.682h75.839l118.345,68.817
		c5.577,3.243,11.81,4.859,18.034,4.859c6.177,0,12.354-1.593,17.892-4.78c11.124-6.406,17.987-18.256,17.987-31.1V124.559
		C320.891,111.724,314.028,99.858,302.904,93.46z M137.374,313.764h-64.58c-20.386,0-36.914-16.48-36.914-36.802v-41.915
		c0-20.322,16.528-36.803,36.914-36.803h64.58V313.764z M285.012,387.441l-126.708-73.677V198.244h0.008l126.7-73.684V387.441z" style="fill: rgb(75, 75, 75);"></path>
	<path class="st0" d="M459.992,256l48.037-48.044c5.294-5.302,5.294-13.877,0-19.179c-5.301-5.293-13.876-5.293-19.178,0
		l-48.037,48.037l-48.044-48.037c-5.302-5.293-13.877-5.293-19.179,0c-5.293,5.302-5.293,13.877,0,19.179L421.628,256
		l-48.037,48.037c-5.293,5.302-5.293,13.885,0,19.178c5.302,5.294,13.877,5.294,19.179,0l48.044-48.036l48.037,48.036
		c5.302,5.294,13.878,5.294,19.178,0c5.294-5.293,5.294-13.876,0-19.178L459.992,256z" style="fill: rgb(75, 75, 75);"></path>
</g>
</svg>
